<?xml version="1.0" standalone="no"?>
<!DOCTYPE svg PUBLIC "-//W3C//DTD SVG 20010904//EN"
 "http://www.w3.org/TR/2001/REC-SVG-20010904/DTD/svg10.dtd">
<svg version="1.0" xmlns="http://www.w3.org/2000/svg"
 width="230.000000pt" height="230.000000pt" viewBox="0 0 230.000000 230.000000"
 preserveAspectRatio="xMidYMid meet">
<metadata>
Created by potrace 1.14, written by Peter Selinger 2001-2017
</metadata>
<g transform="translate(0.000000,230.000000) scale(0.100000,-0.100000)"
fill="#000000" stroke="none">
<path d="M1814 2135 c-104 -69 -193 -125 -199 -125 -5 0 -24 9 -42 19 -29 18
-31 23 -29 75 1 31 1 56 0 56 -2 0 -34 -16 -71 -35 -68 -36 -68 -36 -111 -21
-61 22 -122 29 -232 29 -147 -1 -223 -16 -392 -79 -118 -44 -245 -143 -263
-204 -4 -13 -18 -32 -30 -42 -36 -28 -143 -201 -151 -243 -1 -5 -9 -35 -18
-66 -9 -31 -18 -65 -20 -76 -25 -126 -25 -210 0 -338 11 -59 38 -145 45 -145
5 0 6 -7 3 -15 -4 -9 -1 -15 7 -15 8 0 5 -6 -7 -15 -19 -14 -18 -14 2 -9 14 4
23 0 27 -10 4 -10 0 -14 -14 -11 -11 2 -17 0 -14 -6 4 -5 10 -7 14 -4 14 8 40
-19 47 -49 4 -18 3 -27 -3 -23 -5 3 -10 1 -10 -6 0 -7 8 -13 18 -13 10 0 15 6
12 16 -4 13 -3 13 5 0 6 -8 9 -17 6 -21 -2 -4 2 -10 8 -12 9 -4 5 -12 -12 -25
-13 -11 -28 -18 -32 -16 -4 3 -8 0 -8 -6 0 -6 -4 -9 -9 -6 -5 4 -11 1 -13 -4
-2 -6 -12 -13 -23 -15 -11 -2 -20 -4 -20 -5 0 -1 -16 -4 -35 -6 -19 -3 -40 -7
-47 -9 -21 -7 -1 -47 28 -57 16 -5 29 -14 29 -20 0 -5 4 -6 10 -3 5 3 20 0 32
-6 13 -7 54 -14 93 -15 59 -3 70 -6 71 -21 1 -26 -7 -37 -16 -23 -5 8 -9 7
-13 -5 -4 -9 -3 -13 3 -10 6 3 10 0 10 -7 0 -7 7 -2 16 10 15 21 34 22 34 1 0
-6 -4 -8 -9 -4 -17 10 -24 -17 -7 -31 9 -8 11 -9 6 -2 -17 20 -11 29 9 16 11
-7 19 -16 18 -21 -1 -5 4 -11 11 -12 7 -2 8 -1 2 2 -5 2 -8 9 -4 14 3 5 -1 12
-10 15 -15 6 -11 34 6 34 5 0 7 -4 4 -9 -3 -5 1 -14 9 -21 12 -10 18 -10 30 0
17 14 20 30 4 30 -5 0 -8 -4 -5 -8 2 -4 -4 -8 -14 -9 -11 -1 -19 4 -17 10 1 7
-6 11 -15 11 -10 -1 -15 2 -13 7 3 4 -4 6 -15 4 -11 -2 -18 0 -15 6 4 5 11 6
17 3 7 -5 9 -1 5 9 -3 10 -2 17 3 17 6 0 10 -6 10 -13 0 -20 39 -40 55 -27 17
14 29 -15 15 -40 -16 -30 -12 -34 10 -9 23 28 27 18 5 -14 -13 -21 -13 -23 5
-23 13 0 16 4 9 12 -6 8 -7 14 0 18 5 4 12 -3 16 -14 4 -11 10 -18 15 -15 4 3
10 -2 14 -10 3 -8 11 -15 18 -15 10 0 10 2 -1 9 -11 7 -10 10 4 18 12 7 14 13
6 17 -6 4 -11 2 -11 -3 0 -6 -4 -11 -9 -11 -5 0 -8 8 -6 17 2 10 4 20 4 22 1
2 9 -3 19 -12 15 -13 21 -14 32 -4 12 10 12 9 1 -6 -20 -26 -23 -70 -5 -63 9
4 18 -3 24 -17 5 -13 9 -16 9 -6 1 8 -4 20 -11 27 -9 9 -9 12 0 12 7 0 15 -1
18 -2 3 -2 10 5 16 16 10 17 12 17 34 -10 13 -16 23 -33 23 -39 1 -5 -4 -3 -9
5 -5 8 -10 11 -10 5 0 -5 8 -23 19 -38 16 -25 19 -26 25 -10 7 17 8 17 21 -1
8 -10 18 -15 23 -12 6 3 12 1 14 -6 3 -9 6 -9 12 0 4 7 2 12 -4 12 -6 0 -8 5
-4 13 5 7 0 6 -11 -3 -15 -12 -17 -12 -10 -1 6 10 4 12 -5 6 -9 -5 -11 -4 -6
4 4 6 11 9 16 6 5 -3 13 3 19 12 6 11 11 13 11 5 0 -7 5 -10 12 -6 7 4 8 3 4
-5 -4 -6 -13 -8 -19 -5 -7 4 -7 1 1 -7 11 -12 15 -11 26 4 11 15 15 15 19 3 6
-15 23 -16 44 -3 9 6 11 3 7 -8 -4 -9 -13 -14 -21 -11 -9 4 -11 2 -7 -6 4 -6
3 -8 -4 -4 -6 3 -13 2 -17 -4 -4 -6 -11 -7 -18 -3 -7 4 -4 9 8 13 13 5 15 9 7
14 -8 4 -20 -6 -33 -28 -12 -21 -26 -33 -32 -29 -7 3 -8 2 -4 -2 10 -12 38
-15 31 -4 -3 5 0 9 6 9 6 0 8 5 4 11 -4 7 -1 10 7 7 8 -3 13 -12 11 -19 -3
-11 -1 -11 9 -2 6 6 17 9 24 7 7 -3 16 -1 20 5 3 6 11 11 17 11 7 0 6 -5 -1
-14 -8 -10 -9 -16 -1 -21 5 -3 10 -3 10 1 0 4 7 -1 16 -12 14 -17 14 -16 0 9
-9 15 -12 27 -6 27 6 0 13 -7 16 -15 5 -11 11 -12 24 -5 25 13 33 13 24 -2 -4
-7 -3 -8 4 -4 6 4 9 13 6 21 -4 8 -10 13 -14 10 -5 -3 -11 -1 -15 4 -3 6 3 15
14 21 18 9 20 8 14 -7 -3 -10 -3 -15 2 -11 4 4 16 3 26 -2 10 -6 20 -6 23 -1
3 5 -3 11 -14 14 -11 3 -20 11 -20 19 0 8 3 9 8 2 14 -20 42 -25 43 -6 0 12 3
10 10 -7 8 -19 12 -21 24 -11 12 10 13 16 3 29 -9 12 -7 11 9 -2 16 -14 22
-15 27 -5 5 10 7 10 12 1 3 -7 10 -13 15 -13 6 0 7 6 3 13 -6 10 -4 10 7 0 7
-7 20 -13 29 -13 12 1 11 4 -4 15 -22 17 -10 20 14 5 13 -9 12 -12 -5 -25 -11
-9 -26 -13 -35 -9 -37 15 -45 17 -38 10 4 -5 3 -18 -2 -30 -6 -17 -5 -23 6
-23 10 0 12 7 8 21 -6 17 -4 19 7 10 16 -13 51 -15 43 -2 -3 4 0 8 5 8 6 0 11
-8 12 -17 0 -15 2 -15 9 2 5 11 9 16 9 11 1 -5 7 -3 15 4 15 12 11 44 -5 34
-5 -3 -6 2 -2 12 5 14 8 13 19 -7 7 -13 11 -33 8 -44 -5 -17 -4 -17 11 3 10
13 23 21 32 18 8 -3 12 -2 9 3 -7 10 19 23 28 14 11 -11 6 -24 -6 -17 -7 4 -8
3 -4 -5 9 -14 29 -4 23 12 -2 7 3 17 12 24 26 20 32 15 15 -14 -15 -26 -15
-27 0 -8 9 11 21 20 26 20 6 0 9 5 8 10 -2 6 -6 9 -10 7 -5 -1 -8 3 -8 9 0 8
-6 7 -17 -2 -14 -12 -16 -12 -8 0 5 10 4 12 -4 7 -6 -4 -9 -12 -6 -17 4 -5 2
-9 -4 -9 -5 0 -9 8 -8 19 1 15 8 18 36 15 19 -2 39 -8 45 -14 15 -15 29 -12
23 4 -4 9 2 13 19 14 23 0 24 -2 9 -18 -13 -15 -14 -20 -3 -26 7 -4 10 -3 5 1
-4 5 -1 15 7 24 14 15 16 20 16 40 0 5 9 13 20 16 11 4 19 14 18 22 -2 9 3 18
10 20 8 3 10 -1 6 -14 -6 -16 -5 -16 9 2 8 11 13 23 11 27 -2 3 8 16 22 27 15
12 22 21 16 21 -6 0 -14 -5 -17 -10 -4 -6 -11 -7 -17 -4 -7 5 -8 2 -3 -6 6 -9
4 -11 -5 -5 -8 5 -11 4 -7 -2 4 -6 -4 -18 -18 -27 -14 -9 -24 -21 -22 -27 1
-7 -4 -14 -12 -17 -9 -3 -11 0 -6 8 6 9 3 9 -12 1 -11 -6 -23 -8 -25 -5 -3 3
-8 -2 -11 -9 -4 -11 0 -13 14 -10 10 3 19 1 19 -5 0 -6 -8 -11 -17 -11 -40 -1
-52 -5 -47 -13 4 -5 -3 -4 -15 4 -13 8 -17 16 -11 22 6 6 16 4 26 -5 16 -13
17 -12 10 6 -4 11 -4 16 0 12 4 -4 13 2 21 13 8 12 20 17 30 13 10 -4 14 -2
10 4 -4 6 1 10 10 9 10 0 18 6 18 14 0 9 8 14 19 12 10 -2 15 1 12 7 -6 10 11
25 29 26 6 1 9 6 7 13 -1 7 2 12 8 12 24 0 142 139 207 245 43 71 95 197 108
266 20 101 26 229 15 292 -5 23 -10 56 -13 72 -15 95 -104 295 -164 366 -7 9
-10 19 -6 24 5 4 3 5 -3 2 -6 -3 -17 4 -25 15 -8 12 -24 30 -36 41 -21 18 -21
22 -7 48 8 16 19 29 24 29 6 0 10 5 10 10 0 6 5 16 10 23 39 45 170 234 170
244 0 6 -4 14 -9 18 -6 3 -94 -51 -197 -120z m-45 -307 c11 -11 18 -26 14 -31
-3 -6 -1 -7 4 -4 14 9 37 -19 27 -34 -4 -8 -3 -9 4 -5 27 17 128 -175 156
-296 27 -121 36 -238 22 -307 -3 -14 -8 -42 -11 -61 -12 -73 -54 -178 -110
-269 -20 -33 -53 -71 -61 -71 -5 0 -22 19 -39 41 -16 23 -54 61 -84 86 -53 43
-131 89 -131 78 0 -4 -5 -3 -10 0 -8 5 -7 12 2 23 12 14 10 14 -10 3 -12 -6
-27 -9 -33 -5 -6 3 -25 8 -42 11 -18 3 -40 9 -49 14 -10 5 -18 7 -18 4 0 -3
-9 -1 -20 5 -11 6 -18 15 -15 19 2 5 -3 8 -13 7 -10 0 -16 5 -14 14 2 8 0 12
-3 8 -15 -15 -43 11 -38 34 3 16 2 19 -4 10 -7 -9 -12 -7 -21 12 -11 24 -7 36
10 36 5 0 7 -8 3 -19 -4 -14 -1 -18 17 -17 13 1 29 -3 37 -8 12 -9 13 -8 9 5
-11 30 7 41 31 18 23 -22 39 -20 25 3 -11 16 -15 42 -6 33 4 -4 7 -10 8 -13 1
-21 47 -99 63 -109 16 -10 22 -9 33 4 11 14 11 16 -2 8 -12 -7 -13 -6 -3 7 7
8 10 18 6 22 -4 4 1 4 11 0 12 -5 14 -9 6 -14 -8 -5 -9 -10 -2 -14 6 -3 13 -2
17 4 4 7 12 7 25 0 13 -7 21 -7 25 0 5 8 11 8 19 1 9 -7 16 -7 24 1 7 7 12 9
12 5 0 -11 71 28 96 52 12 11 25 18 28 15 3 -2 4 -1 1 2 -2 4 2 19 10 33 18
32 36 101 27 101 -4 0 -7 12 -8 28 -1 15 -17 54 -37 86 -20 33 -33 64 -30 69
3 6 2 7 -4 4 -5 -4 -16 6 -24 21 -8 15 -20 33 -27 40 -7 8 -10 18 -7 23 4 5 1
9 -5 9 -6 0 -8 5 -5 10 3 6 -1 10 -9 10 -9 0 -16 7 -16 15 0 8 5 15 10 15 6 0
10 7 10 15 0 18 5 18 30 5 13 -7 21 -7 26 2 4 6 3 8 -3 5 -6 -4 -19 0 -29 8
-11 8 -14 14 -6 15 6 0 12 7 12 16 0 9 5 12 12 8 7 -5 9 -2 5 8 -3 9 0 27 8
41 7 15 9 30 4 38 -12 19 -11 29 2 29 5 0 7 -6 3 -12 -4 -7 2 -4 14 6 23 20
29 46 11 46 -5 0 -7 5 -4 10 9 14 12 13 34 -12z m-29 -16 c0 -13 -12 -22 -22
-16 -10 6 -1 24 13 24 5 0 9 -4 9 -8z m-395 -640 c-3 -3 -11 0 -18 7 -9 10 -8
11 6 5 10 -3 15 -9 12 -12z m-75 -6 c0 -2 -7 -7 -16 -10 -8 -3 -12 -2 -9 4 6
10 25 14 25 6z m40 -6 c0 -5 -2 -10 -4 -10 -3 0 -8 5 -11 10 -3 6 -1 10 4 10
6 0 11 -4 11 -10z m145 -51 c-3 -4 -1 -10 5 -14 5 -3 10 -1 10 6 0 25 14 -3
16 -32 l2 -31 -23 22 c-13 12 -22 30 -20 41 2 10 0 19 -5 19 -4 0 -11 8 -14
17 -6 15 -5 15 13 -1 11 -10 18 -22 16 -27z m-128 25 c-3 -3 -12 -4 -19 -1 -8
3 -5 6 6 6 11 1 17 -2 13 -5z m-762 -593 c-8 -14 -25 -14 -25 0 0 5 5 7 10 4
6 -3 10 -1 10 6 0 7 3 10 6 6 3 -3 3 -10 -1 -16z m79 -27 c3 -8 2 -12 -4 -9
-6 3 -10 10 -10 16 0 14 7 11 14 -7z m-13 -17 c16 -13 22 -47 7 -47 -4 0 -9 5
-9 10 -1 6 -2 15 -3 20 0 6 -8 15 -16 20 -8 5 -10 10 -5 10 6 -1 17 -6 26 -13z
m60 -14 c13 -17 13 -17 -6 -3 -11 8 -22 16 -24 17 -2 2 0 3 6 3 6 0 17 -8 24
-17z m47 -55 c-25 -19 -38 -23 -38 -10 0 15 22 31 42 29 17 -1 17 -3 -4 -19z
m109 -42 c-1 -6 -6 -14 -12 -18 -6 -5 -5 -8 3 -8 7 0 16 10 21 22 6 18 9 19
14 5 4 -10 2 -17 -4 -17 -6 0 -7 -6 -3 -12 4 -7 4 -10 -1 -6 -4 4 -14 3 -22
-3 -13 -12 -18 -2 -14 29 1 8 -4 21 -11 29 -12 15 -11 15 9 3 12 -8 21 -19 20
-24z m610 0 c-3 -7 -1 -18 4 -23 6 -6 4 -10 -6 -11 -8 -1 -22 -3 -30 -4 -8 -1
-15 -5 -15 -10 0 -4 -5 -8 -12 -8 -6 0 -8 3 -5 7 4 3 1 13 -6 22 -11 14 -10
15 7 1 18 -14 19 -13 13 3 -5 15 -4 16 13 7 22 -12 30 -13 29 -2 -3 15 1 32 7
32 3 0 4 -6 1 -14z m-385 -45 c8 11 9 10 4 -5 -4 -10 -1 -25 5 -32 16 -20 -5
-18 -36 2 -14 9 -22 21 -18 30 4 12 8 12 20 2 11 -9 17 -9 25 3z m294 -18
c-10 -11 -37 -12 -30 -2 3 5 12 9 21 9 9 0 13 -3 9 -7z m-361 -13 c-3 -5 -14
-8 -25 -7 -24 2 -18 12 9 14 12 1 19 -2 16 -7z"/>
<path d="M1750 1780 c0 -5 5 -10 10 -10 6 0 10 5 10 10 0 6 -4 10 -10 10 -5 0
-10 -4 -10 -10z"/>
<path d="M1733 1757 c3 -9 -1 -18 -10 -21 -9 -4 -13 -9 -10 -13 4 -3 2 -11 -3
-18 -7 -8 -5 -12 4 -12 9 0 13 8 11 20 -3 12 0 17 8 14 16 -6 20 30 5 39 -7 5
-9 2 -5 -9z"/>
<path d="M1790 1720 c0 -5 5 -10 11 -10 5 0 7 5 4 10 -3 6 -8 10 -11 10 -2 0
-4 -4 -4 -10z"/>
<path d="M1710 1671 c0 -6 4 -13 10 -16 6 -3 7 1 4 9 -7 18 -14 21 -14 7z"/>
<path d="M1650 1586 c0 -2 7 -7 16 -10 8 -3 12 -2 9 4 -6 10 -25 14 -25 6z"/>
<path d="M1359 1121 c9 -6 10 -11 2 -15 -6 -4 -11 -13 -11 -19 0 -7 8 -3 16 8
16 20 16 19 9 -4 -6 -20 -4 -23 9 -18 9 4 16 1 16 -5 0 -18 10 -3 15 22 3 16
1 19 -8 11 -9 -7 -16 -5 -25 10 -7 10 -18 19 -25 19 -9 0 -8 -3 2 -9z"/>
<path d="M1313 1092 c-9 -15 -7 -18 8 -19 20 -2 23 5 11 24 -6 9 -11 8 -19 -5z"/>
<path d="M1708 1073 c7 -3 16 -2 19 1 4 3 -2 6 -13 5 -11 0 -14 -3 -6 -6z"/>
<path d="M1350 1060 c0 -6 7 -10 15 -10 8 0 15 2 15 4 0 2 -7 6 -15 10 -8 3
-15 1 -15 -4z"/>
<path d="M1420 1060 c0 -5 5 -10 11 -10 5 0 7 5 4 10 -3 6 -8 10 -11 10 -2 0
-4 -4 -4 -10z"/>
<path d="M1673 1048 c-2 -18 0 -20 7 -8 12 18 13 30 2 30 -4 0 -9 -10 -9 -22z"/>
<path d="M1755 1060 c3 -5 8 -10 11 -10 2 0 4 5 4 10 0 6 -5 10 -11 10 -5 0
-7 -4 -4 -10z"/>
<path d="M1535 1050 c-4 -6 -10 -8 -14 -6 -4 3 -13 -4 -20 -16 -10 -16 -10
-18 0 -12 8 5 11 2 7 -8 -4 -10 0 -14 13 -13 26 2 34 12 21 28 -7 8 -9 17 -5
21 4 4 13 -4 21 -16 7 -13 11 -16 9 -7 -3 9 1 16 8 16 7 0 11 -6 8 -14 -6 -15
13 -18 22 -3 3 6 11 10 17 10 7 0 6 -6 -2 -15 -7 -8 -11 -15 -9 -16 31 -6 40
-6 45 2 3 5 0 8 -7 7 -7 -2 -13 3 -14 9 0 18 -42 46 -50 33 -4 -7 -12 -7 -25
0 -13 7 -21 7 -25 0z m70 -9 c3 -5 2 -12 -3 -15 -5 -3 -9 1 -9 9 0 17 3 19 12
6z m-70 -22 c11 -17 -1 -21 -15 -4 -8 9 -8 15 -2 15 6 0 14 -5 17 -11z"/>
<path d="M1642 1041 c7 -9 13 -18 15 -20 1 -2 1 5 0 16 0 11 -7 20 -14 20 -10
0 -10 -4 -1 -16z"/>
<path d="M1393 1035 c0 -8 4 -12 9 -9 4 3 8 9 8 15 0 5 -4 9 -8 9 -5 0 -9 -7
-9 -15z"/>
<path d="M1438 1028 c-7 -17 15 -19 29 -3 4 4 3 5 -4 2 -6 -4 -13 -2 -15 5 -3
8 -6 6 -10 -4z"/>
<path d="M1570 985 c0 -8 4 -15 10 -15 5 0 7 7 4 15 -4 8 -8 15 -10 15 -2 0
-4 -7 -4 -15z"/>
<path d="M1590 996 c0 -2 8 -10 18 -17 15 -13 16 -12 3 4 -13 16 -21 21 -21
13z"/>
<path d="M1456 1078 c3 -4 9 -8 15 -8 5 0 9 4 9 8 0 5 -7 9 -15 9 -8 0 -12 -4
-9 -9z"/>
<path d="M1031 327 c2 -1 13 -9 24 -17 19 -14 19 -14 6 3 -7 9 -18 17 -24 17
-6 0 -8 -1 -6 -3z"/>
<path d="M226 1038 c3 -5 10 -6 15 -3 13 9 11 12 -6 12 -8 0 -12 -4 -9 -9z"/>
<path d="M247 999 c7 -7 15 -10 18 -7 3 3 -2 9 -12 12 -14 6 -15 5 -6 -5z"/>
<path d="M315 811 c-3 -5 -2 -12 3 -15 5 -3 9 1 9 9 0 17 -3 19 -12 6z"/>
<path d="M346 741 c9 -9 34 -9 34 -1 0 5 -9 8 -20 7 -10 -1 -17 -3 -14 -6z"/>
<path d="M1755 560 c-16 -7 -17 -9 -3 -9 9 -1 20 4 23 9 7 11 7 11 -20 0z"/>
<path d="M442 543 c-7 -2 -17 -14 -23 -26 -9 -19 -8 -20 3 -7 8 8 20 21 28 28
15 13 13 14 -8 5z"/>
<path d="M1770 519 c0 -5 5 -7 10 -4 6 3 10 8 10 11 0 2 -4 4 -10 4 -5 0 -10
-5 -10 -11z"/>
<path d="M1731 494 c0 -11 3 -14 6 -6 3 7 2 16 -1 19 -3 4 -6 -2 -5 -13z"/>
<path d="M375 480 c3 -5 8 -10 11 -10 2 0 4 5 4 10 0 6 -5 10 -11 10 -5 0 -7
-4 -4 -10z"/>
<path d="M430 439 c0 -5 5 -7 10 -4 6 3 10 8 10 11 0 2 -4 4 -10 4 -5 0 -10
-5 -10 -11z"/>
<path d="M490 426 c0 -2 7 -7 16 -10 8 -3 12 -2 9 4 -6 10 -25 14 -25 6z"/>
<path d="M766 415 c-3 -9 -11 -13 -17 -9 -8 4 -9 3 -5 -5 5 -7 17 -9 29 -5 17
5 19 4 10 -6 -13 -14 -7 -40 9 -40 7 0 6 5 -1 13 -6 8 -7 17 -1 23 5 5 3 16
-4 27 -12 16 -14 16 -20 2z"/>
<path d="M635 401 c-3 -5 -2 -12 3 -15 5 -3 9 1 9 9 0 17 -3 19 -12 6z"/>
<path d="M673 345 c0 -8 4 -12 9 -9 5 3 6 10 3 15 -9 13 -12 11 -12 -6z"/>
<path d="M792 331 c-11 -7 -11 -9 0 -14 9 -3 15 1 15 9 0 8 -1 14 -1 14 -1 0
-7 -4 -14 -9z"/>
<path d="M1217 310 c-13 -19 -15 -19 -21 -4 -6 15 -8 15 -24 1 -9 -9 -21 -16
-25 -15 -5 0 -12 -4 -15 -9 -4 -4 -3 -5 2 -1 5 4 16 -1 25 -10 9 -10 13 -13 9
-8 -15 19 -8 28 9 15 11 -10 14 -10 9 -1 -4 6 -2 12 3 12 6 0 11 -6 11 -12 1
-7 7 -2 14 11 9 16 15 20 18 11 3 -11 6 -10 11 3 9 25 -10 30 -26 7z"/>
<path d="M1519 313 c-13 -16 -12 -17 4 -4 16 13 21 21 13 21 -2 0 -10 -8 -17
-17z"/>
<path d="M855 300 c3 -5 8 -10 11 -10 2 0 4 5 4 10 0 6 -5 10 -11 10 -5 0 -7
-4 -4 -10z"/>
<path d="M1405 300 c-3 -6 1 -7 9 -4 18 7 21 14 7 14 -6 0 -13 -4 -16 -10z"/>
<path d="M1428 288 c-10 -10 -14 -18 -9 -18 10 0 36 29 30 34 -2 1 -12 -6 -21
-16z"/>
<path d="M1350 282 c0 -4 10 -9 22 -9 18 -2 20 0 8 7 -18 12 -30 13 -30 2z"/>
<path d="M973 265 c0 -7 8 -10 19 -7 10 2 18 6 18 7 0 1 -8 5 -18 7 -11 3 -19
0 -19 -7z"/>
<path d="M1284 264 c-18 -14 -18 -15 4 -4 12 6 22 13 22 15 0 8 -5 6 -26 -11z"/>
<path d="M1119 268 c-6 -21 -5 -37 2 -32 5 3 7 9 4 14 -3 4 1 11 7 13 10 4 10
6 1 6 -7 1 -13 0 -14 -1z"/>
<path d="M1210 239 c0 -5 5 -7 10 -4 6 3 10 8 10 11 0 2 -4 4 -10 4 -5 0 -10
-5 -10 -11z"/>
</g>
</svg>
